<svg xmlns="http://www.w3.org/2000/svg" width="116.967" height="210.277" viewBox="0 0 116.967 210.277">
  <g id="Groupe_14" data-name="Groupe 14" transform="translate(-63.786 -122.766)">
    <g id="house" transform="translate(63.786 237.076)">
      <path id="Tracé_90" data-name="Tracé 90" d="M100.609,346.185v21.969H91.392V346.181" transform="translate(-72.033 -279.095)" fill="#c97523"/>
      <path id="Tracé_91" data-name="Tracé 91" d="M95.5,346.185v21.969H91.392V346.181" transform="translate(-72.033 -279.095)" fill="#a85613"/>
      <ellipse id="Ellipse_61" data-name="Ellipse 61" cx="22.36" cy="35.152" rx="22.36" ry="35.152" transform="translate(1.608 1.607)" fill="#8cc928"/>
      <path id="Tracé_92" data-name="Tracé 92" d="M29.949,107.371c-12.35,0-22.36-15.739-22.36-35.152S17.6,37.067,29.949,37.067c-5.468,0-9.9,15.739-9.9,35.152S24.481,107.371,29.949,107.371Z" transform="translate(-5.981 -35.46)" fill="#82b20b"/>
      <path id="Tracé_93" data-name="Tracé 93" d="M243.919,157.083v44.756H185.2V157.083l29.524-28.64Z" transform="translate(-145.971 -107.48)" fill="#e9eaef"/>
      <path id="Tracé_94" data-name="Tracé 94" d="M394.569,158.288v-8.267h14.679v22.247" transform="translate(-310.988 -124.487)" fill="#9eb1b7"/>
      <g id="Groupe_10" data-name="Groupe 10" transform="translate(1.608 84.981)">
        <rect id="Rectangle_3" data-name="Rectangle 3" width="35.448" height="9.378" transform="translate(69.794)" fill="#85c10d"/>
        <rect id="Rectangle_4" data-name="Rectangle 4" width="40.152" height="9.378" fill="#85c10d"/>
      </g>
      <path id="Tracé_95" data-name="Tracé 95" d="M243.919,168.107v8.366L214.56,148.442,185.2,176.473v-8.366l27.027-25.74,2.331-2.166,2.33,2.166Z" transform="translate(-145.971 -116.747)" fill="#d2d4d8"/>
      <path id="Tracé_96" data-name="Tracé 96" d="M182.031,126.464,148.6,158.377l-4.674-3.924,35.77-34.066,2.331-2.165,2.331,2.165,35.77,34.066-4.674,3.924Z" transform="translate(-113.442 -99.425)" fill="#ea4756"/>
      <rect id="Rectangle_5" data-name="Rectangle 5" width="19.364" height="33.532" transform="translate(46.413 60.827)" fill="#c97523"/>
      <rect id="Rectangle_6" data-name="Rectangle 6" width="22.052" height="19.364" transform="translate(71.401 60.827)" fill="#a0d9f2"/>
      <rect id="Rectangle_7" data-name="Rectangle 7" width="22.052" height="5.884" transform="translate(71.401 60.827)" fill="#c97523"/>
      <ellipse id="Ellipse_62" data-name="Ellipse 62" cx="5.386" cy="5.386" rx="5.386" ry="5.386" transform="translate(63.203 40.478)" fill="#413740"/>
      <path id="Tracé_97" data-name="Tracé 97" d="M331.086,331.62h22.051a1.607,1.607,0,0,0,1.608-1.608V310.649a1.607,1.607,0,0,0-1.608-1.608H331.086a1.608,1.608,0,0,0-1.608,1.608v19.364A1.608,1.608,0,0,0,331.086,331.62Zm1.608-3.215V318.14h18.836v10.265Zm18.836-16.149v2.669H332.693v-2.669Z" transform="translate(-259.685 -249.822)"/>
      <path id="Tracé_98" data-name="Tracé 98" d="M106.848,112.852H99.555V99.1a1.608,1.608,0,0,0-1.608-1.608h0A1.608,1.608,0,0,0,96.34,99.1v13.753H71.4a1.608,1.608,0,0,0-1.608,1.608v7.771H67.386V90.306A1.608,1.608,0,0,0,65.778,88.7H46.414a1.608,1.608,0,0,0-1.608,1.608v31.925H43.368V114.46a1.608,1.608,0,0,0-1.608-1.608h-.922V85.235l27.75-26.494,27.751,26.5V91.6a1.608,1.608,0,0,0,1.608,1.608h0A1.608,1.608,0,0,0,99.555,91.6V88.306l1.35,1.289a1.608,1.608,0,0,0,2.143.069l4.639-3.894a1.683,1.683,0,0,0,.5-.667,1.61,1.61,0,0,0-.386-1.758l-7.93-7.552V55.013a1.608,1.608,0,0,0-1.608-1.608H83.581a1.608,1.608,0,0,0-1.608,1.608V58.75l-9.96-9.485L69.683,47.1a1.608,1.608,0,0,0-2.188,0L65.15,49.279l-17.22,16.4c-.121-12.222-4.194-23.564-10.782-30.2a1.6,1.6,0,0,0-2.342.082h0a1.608,1.608,0,0,0,.074,2.2c6.1,6.138,9.842,16.873,9.842,28.483,0,.857-.026,1.713-.066,2.559L29.38,83.344a1.61,1.61,0,0,0-.386,1.758,1.684,1.684,0,0,0,.5.667l4.639,3.894a1.607,1.607,0,0,0,2.143-.068l1.351-1.29v3.118c-3.8,5.4-8.638,8.36-13.656,8.36-5.4,0-10.536-3.392-14.454-9.552-4.061-6.385-6.3-14.906-6.3-23.993s2.237-17.608,6.3-23.993c3.918-6.159,9.051-9.552,14.454-9.552a13.337,13.337,0,0,1,5.52,1.218,1.6,1.6,0,0,0,2.041-.678h0a1.609,1.609,0,0,0-.738-2.261,16.5,16.5,0,0,0-6.823-1.493C17.427,29.479,11.33,33.4,6.8,40.52,2.415,47.414,0,56.548,0,66.238S2.415,85.063,6.8,91.957c3.052,4.8,6.818,8.142,10.951,9.813v11.082H12.861V110.46a1.652,1.652,0,0,0-1.558-1.674,1.608,1.608,0,0,0-1.657,1.607v2.46H7.7V110.46a1.652,1.652,0,0,0-1.558-1.674,1.608,1.608,0,0,0-1.657,1.607v2.46H1.608A1.608,1.608,0,0,0,0,114.46v9.378a1.608,1.608,0,0,0,1.608,1.608H106.848a1.608,1.608,0,0,0,1.608-1.608V114.46A1.607,1.607,0,0,0,106.848,112.852ZM85.188,56.621H96.653V72.73L85.188,61.812ZM35.094,86.275,32.9,84.433,67.352,51.621l1.237-1.149,1.222,1.135,34.468,32.826-2.195,1.842L69.7,55.356a1.607,1.607,0,0,0-2.22,0Zm2.53,10.231v16.346H35.511v-2.46a1.608,1.608,0,0,0-3.215,0v2.46H30.184V101.765A21.339,21.339,0,0,0,37.623,96.506Zm-16.656,6.212a16.145,16.145,0,0,0,6,0v10.138h-6ZM3.215,116.068H40.153v6.163H3.215Zm44.807,6.163V91.913H64.171v30.317H48.022Zm57.219,0H73.008v-6.163h32.233v6.163Z" transform="translate(0 -29.479)"/>
      <path id="Tracé_99" data-name="Tracé 99" d="M276.075,387.684h-2.811a1.608,1.608,0,0,0,0,3.215h2.811a1.608,1.608,0,1,0,0-3.215Z" transform="translate(-214.112 -311.806)"/>
      <path id="Tracé_100" data-name="Tracé 100" d="M304.767,219.97a6.995,6.995,0,1,0-6.995,6.995A7,7,0,0,0,304.767,219.97Zm-7,3.78a3.78,3.78,0,1,1,3.78-3.78A3.784,3.784,0,0,1,297.772,223.749Z" transform="translate(-229.182 -174.105)"/>
    </g>
    <g id="Groupe_11" data-name="Groupe 11">
      <ellipse id="Ellipse_54" data-name="Ellipse 54" cx="6.5" cy="6" rx="6.5" ry="6" transform="translate(149 237)"/>
      <ellipse id="Ellipse_55" data-name="Ellipse 55" cx="10" cy="12" rx="10" ry="12" transform="translate(152 206)"/>
      <path id="Union_1" data-name="Union 1" d="M-370.069-4979.954a21.6,21.6,0,0,0,17.406,9.284c12.44,0,22.525-11.381,22.525-25.421q0-1.176-.093-2.325c.2.009.4.015.6.015,7.634,0,13.822-6.985,13.822-15.6s-6.188-15.6-13.822-15.6a12.75,12.75,0,0,0-8.179,3.023c-2.95-7.888-9.867-13.423-17.93-13.423-6.971,0-13.084,4.137-16.519,10.354a15.066,15.066,0,0,0-11.636-5.732c-8.765,0-15.87,8.019-15.87,17.91,0,.022,0,.044,0,.067A26.348,26.348,0,0,0-410-4996.091c0,14.04,10.085,25.421,22.525,25.421A21.6,21.6,0,0,0-370.069-4979.954Z" transform="matrix(0.94, 0.342, -0.342, 0.94, -1246.269, 4999.045)"/>
    </g>
  </g>
</svg>
