<svg xmlns="http://www.w3.org/2000/svg" width="80" height="165.3" viewBox="0 0 80 165.3">
  <g id="Groupe_14" data-name="Groupe 14" transform="translate(-217 -168.215)">
    <g id="caravan" transform="translate(217 265.33)">
      <path id="Tracé_72" data-name="Tracé 72" d="M401.424,370.869a2.986,2.986,0,0,1-2.986-2.986v-7.758h5.973v7.758A2.986,2.986,0,0,1,401.424,370.869Zm0,0" transform="translate(-336.182 -303.856)" fill="#ffde55"/>
      <path id="Tracé_73" data-name="Tracé 73" d="M78.969,63.3S96.6,31.582,75.411,13.5s-86.7,6.817-61.354,48.313Zm0,0" transform="translate(-7.016 -6.348)" fill="#eaeaea"/>
      <path id="Tracé_74" data-name="Tracé 74" d="M29.976,57.09c-3.127-11.959.925-19.5,5.225-23.871C15.184,40.989-.621,59.457,14.059,83.495l29.686.677c-2.177-16.1-9.166-9.476-13.77-27.082Zm0,0" transform="translate(-7.018 -28.028)" fill="#d8d7da"/>
      <path id="Tracé_75" data-name="Tracé 75" d="M303.317,146.795H281.235V117.525a11.041,11.041,0,0,1,22.082,0Zm0,0" transform="translate(-237.292 -89.846)" fill="#d8d7da"/>
      <path id="Tracé_76" data-name="Tracé 76" d="M80.656,341.874H11.648a4.148,4.148,0,1,1,0-8.3H80.656a4.148,4.148,0,0,1,0,8.3Zm0,0" transform="translate(-6.328 -281.457)" fill="#ffeb99"/>
      <path id="Tracé_77" data-name="Tracé 77" d="M55.82,337.722a4.148,4.148,0,0,0-4.148-4.148H11.648a4.148,4.148,0,1,0,0,8.3H51.673A4.147,4.147,0,0,0,55.82,337.722Zm0,0" transform="translate(-6.328 -281.453)" fill="#ffde55"/>
      <path id="Tracé_78" data-name="Tracé 78" d="M325.893,148.433a5.909,5.909,0,1,1-5.909-5.909A5.91,5.91,0,0,1,325.893,148.433Zm0,0" transform="translate(-265 -120.254)" fill="#ccf8ff"/>
      <path id="Tracé_79" data-name="Tracé 79" d="M368.818,249.168a2.743,2.743,0,1,1-2.743-2.743A2.743,2.743,0,0,1,368.818,249.168Zm0,0" transform="translate(-306.562 -207.921)" fill="#c6c5ca"/>
      <path id="Tracé_80" data-name="Tracé 80" d="M117.127,139.256h-6.169a6.47,6.47,0,0,1-6.47-6.47v-3.03a6.47,6.47,0,0,1,6.47-6.47h6.169a6.47,6.47,0,0,1,6.47,6.47v3.03A6.47,6.47,0,0,1,117.127,139.256Zm0,0" transform="translate(-88.162 -104.022)" fill="#acabb1"/>
      <path id="Tracé_81" data-name="Tracé 81" d="M88.865,276.787a3.373,3.373,0,0,0,3.229-4.331,15.434,15.434,0,0,0-29.627,0,3.373,3.373,0,0,0,3.229,4.332Zm0,0" transform="translate(-52.589 -220.518)" fill="#ffcd00"/>
      <path id="Tracé_82" data-name="Tracé 82" d="M110.75,302.1a10.744,10.744,0,1,1-10.745-10.744A10.744,10.744,0,0,1,110.75,302.1Zm0,0" transform="translate(-75.314 -245.834)" fill="#acabb1"/>
      <path id="Tracé_83" data-name="Tracé 83" d="M130.532,337.725a5.091,5.091,0,1,1,5.092-5.091A5.1,5.1,0,0,1,130.532,337.725Zm0,0" transform="translate(-105.841 -276.364)" fill="#898890"/>
      <path id="Tracé_84" data-name="Tracé 84" d="M110.958,139.586h2.247a41.115,41.115,0,0,1-2.086-6.173,30.609,30.609,0,0,1-1.055-9.738,6.47,6.47,0,0,0-5.576,6.409v3.03A6.47,6.47,0,0,0,110.958,139.586Zm0,0" transform="translate(-88.161 -104.351)" fill="#898890"/>
      <path id="Tracé_85" data-name="Tracé 85" d="M75.85,51.172c2.51-6.472,5.712-17.679,3.286-28.433a1.172,1.172,0,1,0-2.286.516c2.372,10.511-1,21.606-3.431,27.693H67.2V27.678a12.213,12.213,0,1,0-24.426,0v23.27H40.42a16.782,16.782,0,0,0-5.689-7.9,16.576,16.576,0,0,0-20.081,0,16.782,16.782,0,0,0-5.689,7.9H5.9C2.321,43.555,1.536,36.411,3.571,29.713,5.369,23.8,9.435,18.254,15.33,13.68a56.943,56.943,0,0,1,27.8-11.005c10.218-1.158,19.15.8,24.506,5.369a27.639,27.639,0,0,1,7.929,11,1.172,1.172,0,1,0,2.182-.856A29.961,29.961,0,0,0,69.156,6.261,26.023,26.023,0,0,0,57.439.853,45.9,45.9,0,0,0,42.865.346,59.361,59.361,0,0,0,13.893,11.828C7.613,16.7,3.269,22.65,1.329,29.032-.82,36.1-.1,43.583,3.467,51.282A5.32,5.32,0,0,0,5.319,61.589h8.713a11.909,11.909,0,0,0,21.317,0H61.083v2.438a4.159,4.159,0,1,0,8.317,0V61.589h4.927A5.32,5.32,0,0,0,75.85,51.172ZM45.114,27.678a9.869,9.869,0,0,1,19.738,0v23.27H45.114ZM5.319,59.245a2.976,2.976,0,1,1,0-5.952H8.583a4.547,4.547,0,0,0,4.249,4.139,11.834,11.834,0,0,0,.319,1.813Zm19.371,6.6a9.583,9.583,0,0,1-9.572-9.573,9.481,9.481,0,0,1,.937-4.136,1.172,1.172,0,0,0-2.114-1.014,11.776,11.776,0,0,0-1.109,3.962A2.136,2.136,0,0,1,11,52.266a14.262,14.262,0,0,1,27.377,0,2.138,2.138,0,0,1-1.832,2.813A11.933,11.933,0,0,0,24.691,44.353a11.8,11.8,0,0,0-7.262,2.468,1.172,1.172,0,1,0,1.429,1.857A9.48,9.48,0,0,1,24.691,46.7a9.572,9.572,0,1,1,0,19.145Zm42.366-1.815a1.815,1.815,0,1,1-3.629,0V61.589h3.629Zm7.271-4.781h-38.1a11.922,11.922,0,0,0,.319-1.813A4.547,4.547,0,0,0,40.8,53.293H74.328a2.976,2.976,0,1,1,0,5.952Zm0,0" transform="translate(0 0)"/>
      <path id="Tracé_86" data-name="Tracé 86" d="M320.737,142.1a7.081,7.081,0,1,0-7.081,7.081A7.089,7.089,0,0,0,320.737,142.1Zm-7.081,4.738a4.737,4.737,0,1,1,4.738-4.737A4.743,4.743,0,0,1,313.656,146.843Zm0,0" transform="translate(-258.672 -113.926)"/>
      <path id="Tracé_87" data-name="Tracé 87" d="M124.2,320.039a6.263,6.263,0,1,0,6.263,6.263A6.27,6.27,0,0,0,124.2,320.039Zm0,10.182a3.919,3.919,0,1,1,3.919-3.919A3.923,3.923,0,0,1,124.2,330.221Zm0,0" transform="translate(-99.513 -270.033)"/>
      <path id="Tracé_88" data-name="Tracé 88" d="M359.743,238.926a3.915,3.915,0,1,0,3.915,3.915A3.919,3.919,0,0,0,359.743,238.926Zm0,5.485a1.571,1.571,0,1,1,1.57-1.57A1.573,1.573,0,0,1,359.743,244.411Zm0,0" transform="translate(-300.23 -201.594)"/>
      <path id="Tracé_89" data-name="Tracé 89" d="M104.63,115.785a7.65,7.65,0,0,0-7.642,7.642v3.031a7.651,7.651,0,0,0,7.642,7.642H110.8a7.651,7.651,0,0,0,7.642-7.642v-3.031a7.65,7.65,0,0,0-7.642-7.642Zm11.467,7.642v3.031a5.3,5.3,0,0,1-5.3,5.3H104.63a5.3,5.3,0,0,1-5.3-5.3v-3.031a5.3,5.3,0,0,1,5.3-5.3H110.8A5.3,5.3,0,0,1,116.1,123.427Zm0,0" transform="translate(-81.833 -97.694)"/>
    </g>
    <g id="Groupe_12" data-name="Groupe 12" transform="translate(152.473 45.411)">
      <ellipse id="Ellipse_54" data-name="Ellipse 54" cx="4.15" cy="3.842" rx="4.15" ry="3.842" transform="translate(80.5 195.906)" fill="#505050"/>
      <ellipse id="Ellipse_55" data-name="Ellipse 55" cx="6.385" cy="7.683" rx="6.385" ry="7.683" transform="translate(74.115 176.058)" fill="#505050"/>
      <path id="Union_1" data-name="Union 1" d="M25.537,5.974A13.813,13.813,0,0,1,36.659.021C44.6.014,51.038,7.293,51.03,16.279q0,.753-.061,1.488c.128-.006.257-.01.386-.01,4.876,0,8.824,4.463,8.819,9.976s-3.961,9.988-8.837,9.993a8.12,8.12,0,0,1-5.222-1.93c-1.889,5.05-6.309,8.6-11.459,8.6A12.148,12.148,0,0,1,24.112,37.78a9.634,9.634,0,0,1-7.435,3.676C11.079,41.461,6.546,36.333,6.552,30c0-.014,0-.028,0-.043A16.843,16.843,0,0,1,.025,16.325C.034,7.339,6.481.049,14.426.042A13.755,13.755,0,0,1,25.537,5.974Z" transform="translate(140.235 164.516) rotate(160)" fill="#505050"/>
    </g>
  </g>
</svg>
