<svg height="512pt" viewBox="0 -7 512.00034 512" width="512pt" xmlns="http://www.w3.org/2000/svg"><g fill="#81e2e1"><path d="m56.753906 405.445312-42.539062 10.566407-6.167969 31.871093c-2.488281 10.640626 3.914063 21.332032 14.460937 24.183594l28.84375 7.792969c10.632813 2.867187 21.605469-3.273437 24.734376-13.820313l7.140624-30.742187zm0 0"/><path d="m455.246094 405.445312 42.539062 10.566407 6.167969 31.871093c2.484375 10.640626-3.914063 21.332032-14.464844 24.183594l-28.84375 7.792969c-10.628906 2.867187-21.601562-3.273437-24.730469-13.820313l-7.140624-30.742187zm0 0"/><path d="m256 424.335938-123.550781 5.082031c2.015625 14.261719 4.613281 27.921875 7.921875 40.371093 1.714844 6.457032 6.851562 11.441407 13.390625 12.867188 15.394531 3.359375 48.359375 8.703125 102.238281 8.703125s86.84375-5.34375 102.238281-8.703125c6.539063-1.425781 11.675781-6.410156 13.390625-12.867188 3.308594-12.449218 5.90625-26.105468 7.921875-40.371093zm0 0"/></g><path d="m428.773438 435.296875-45.402344-195.328125s8.125 105.195312-3.820313 189.453125c-23.769531 4.964844-64.105469 10.699219-123.550781 10.699219-59.441406 0-99.78125-5.734375-123.550781-10.699219-11.945313-84.257813-3.820313-189.453125-3.820313-189.453125l-45.402344 195.328125s-43.074218-2.234375-69.011718-19.285156l50.046875-258.394531c8.285156-42.773438 35.484375-79.53125 74.023437-99.839844.480469-.25.742188-.382813.742188-.382813h233.945312s.257813.132813.738282.382813c38.542968 20.308594 65.742187 57.066406 74.027343 99.839844l50.046875 258.394531c-25.9375 17.050781-69.011718 19.285156-69.011718 19.285156zm0 0" fill="#a3f0f1"/><path d="m373.710938 57.777344c-.480469-.25-.738282-.382813-.738282-.382813h-88.292968c-5.949219 11.195313-17.078126 24.230469-28.636719 35.359375-2.96875-2.839844-6.109375-5.980468-9.242188-9.339844-10.15625-10.917968-16.019531-19.554687-19.398437-26.019531h-88.375s-.261719.132813-.742188.382813c-9.894531 5.214844-19.039062 11.519531-27.308594 18.726562 4.980469 21.261719 19.105469 41.179688 40.421876 56.371094 9.4375 6.726562 19.996093 12.347656 31.507812 16.808594 21.429688 8.320312 46.148438 12.628906 73.097656 12.628906 26.9375 0 51.664063-4.308594 73.09375-12.628906 11.511719-4.460938 22.058594-10.082032 31.5-16.808594 21.324219-15.191406 35.441406-35.109375 40.421875-56.375-8.269531-7.203125-17.410156-13.507812-27.308593-18.722656zm0 0" fill="#81e2e1"/><path d="m349.628906 366.082031c-12.203125-20.027343-18.441406-44.40625-21.492187-60.875-2.019531-10.886719-11.519531-18.773437-22.589844-18.773437h-99.09375c-11.070313 0-20.570313 7.886718-22.589844 18.773437-3.050781 16.46875-9.292969 40.847657-21.492187 60.875-3.386719 5.5625-.46875 12.804688 5.835937 14.4375 17.214844 4.457031 49.628907 11.222657 87.792969 11.222657s70.578125-6.765626 87.792969-11.222657c6.304687-1.632812 9.222656-8.875 5.835937-14.4375zm0 0" fill="#81e2e1"/><path d="m208.195312 12.636719c12.136719-3.167969 29.070313-5.136719 47.804688-5.136719s35.667969 1.96875 47.808594 5.136719l26.410156 13.539062 13.035156 41.121094-23.066406 30.085937-27.078125 20.058594-37.109375 14.875-43.125-20.390625-36.105469-27.582031-8.527343-30.085938 13.542968-26.078124zm0 0" fill="#81e2e1"/><path d="m256 132.316406s100.625-75.554687 47.804688-119.683594c109.65625.003907 85.585937 119.683594-47.804688 119.683594zm0 0" fill="#bffafe"/><path d="m256 132.316406s-100.625-75.554687-47.804688-119.683594c-109.652343.003907-85.585937 119.683594 47.804688 119.683594zm0 0" fill="#bffafe"/><path d="m178.265625 220.710938c-9.144531.066406-15.265625-9.890626-11.234375-18.058594 8.609375-17.433594 9.734375-31.882813 10.824219-45.859375 1.261719-16.234375 2.570312-33.023438 16.242187-49.234375 4.464844-5.292969 12.375-5.964844 17.667969-1.5s5.960937 12.375 1.5 17.667968c-8.46875 10.035157-9.285156 20.511719-10.414063 35.011719-1.152343 14.8125-2.585937 33.246094-13.335937 55.015625-2.152344 4.359375-6.640625 6.921875-11.25 6.957032zm0 0" fill="#fff"/><path d="m333.734375 220.710938c9.144531.066406 15.265625-9.890626 11.234375-18.058594-8.609375-17.433594-9.734375-31.882813-10.824219-45.859375-1.261719-16.234375-2.570312-33.023438-16.242187-49.234375-4.464844-5.292969-12.375-5.964844-17.667969-1.5-5.289063 4.464844-5.960937 12.375-1.5 17.667968 8.46875 10.035157 9.285156 20.511719 10.414063 35.011719 1.152343 14.8125 2.585937 33.246094 13.335937 55.015625 2.152344 4.359375 6.636719 6.921875 11.25 6.957032zm0 0" fill="#fff"/><path d="m166.328125 387.78125c16.53125 4.277344 50.164063 11.457031 89.671875 11.457031 39.503906 0 73.140625-7.179687 89.671875-11.457031 11-2.847656 16.273437-15.890625 10.359375-25.597656-11.53125-18.9375-17.527344-42.179688-20.523438-58.34375-2.675781-14.433594-15.277343-24.90625-29.960937-24.90625h-99.09375c-14.683594 0-27.285156 10.472656-29.960937 24.90625-3 16.164062-8.992188 39.40625-20.523438 58.339844-5.921875 9.722656-.632812 22.753906 10.359375 25.601562zm2.449219-17.796875c12.71875-20.882813 19.234375-46.007813 22.460937-63.410156 1.359375-7.324219 7.757813-12.640625 15.214844-12.640625h99.09375c7.457031 0 13.855469 5.316406 15.214844 12.640625 3.222656 17.402343 9.738281 42.527343 22.460937 63.410156.757813 1.25.101563 2.910156-1.308594 3.273437-15.84375 4.101563-48.070312 10.984376-85.914062 10.984376s-70.074219-6.882813-85.914062-10.984376c-1.410157-.363281-2.066407-2.03125-1.308594-3.273437zm0 0"/><path d="m207.78125 346.945312c4.144531 0 7.5-3.359374 7.5-7.5v-8.726562c0-4.144531-3.355469-7.5-7.5-7.5-4.140625 0-7.5 3.355469-7.5 7.5v8.726562c0 4.140626 3.359375 7.5 7.5 7.5zm0 0"/><path d="m304.21875 346.945312c4.140625 0 7.5-3.359374 7.5-7.5v-8.726562c0-4.144531-3.359375-7.5-7.5-7.5s-7.5 3.355469-7.5 7.5v8.726562c0 4.140626 3.359375 7.5 7.5 7.5zm0 0"/><path d="m256 351.601562c6.800781 0 13.199219-2.855468 17.546875-7.828124 2.726563-3.121094 2.40625-7.859376-.710937-10.585938-3.121094-2.726562-7.855469-2.40625-10.582032.710938-1.5 1.71875-3.78125 2.703124-6.253906 2.703124-2.476562 0-4.753906-.984374-6.253906-2.703124-2.726563-3.117188-7.464844-3.4375-10.585938-.710938-3.117187 2.726562-3.433594 7.464844-.707031 10.585938 4.347656 4.972656 10.746094 7.828124 17.546875 7.828124zm0 0"/><path d="m20.554688 479.304688s28.839843 7.792968 28.84375 7.792968c13.871093 3.75 30.621093-4.765625 33.992187-19.363281l35.082031-150.960937c-.109375 34.828124 1.265625 76.40625 6.550782 113.695312 2.160156 15.269531 4.882812 29.148438 8.101562 41.246094 2.453125 9.246094 9.75 16.246094 19.035156 18.269531 15.195313 3.3125 48.886719 8.875 103.839844 8.875s88.644531-5.5625 103.832031-8.875c9.292969-2.023437 16.585938-9.023437 19.042969-18.269531 3.214844-12.097656 5.941406-25.972656 8.101562-41.246094 5.285157-37.289062 6.660157-78.867188 6.546876-113.695312l35.085937 150.960937c.035156.144531.070313.289063.113281.433594 4.207032 14.175781 19.621094 22.773437 33.878906 18.929687l28.84375-7.792968c14.484376-3.910157 23.175782-18.375 19.84375-32.976563l-56.1875-290.136719c-8.566406-44.230468-35.839843-81.765625-75.0625-103.507812-.167968-1.164063-.363281-2.324219-.617187-3.484375-2.867187-13.082031-11.105469-24.089844-23.816406-31.828125-13.132813-7.996094-30.238281-12.101563-50.835938-12.226563-13.179687-3.316406-30.4375-5.144531-48.769531-5.144531s-35.59375 1.828125-48.769531 5.144531c-20.597657.125-37.703125 4.230469-50.835938 12.226563-12.714843 7.738281-20.949219 18.746094-23.816406 31.828125-.253906 1.15625-.449219 2.316406-.617187 3.476562-16.542969 9.167969-31.050782 21.21875-43.148438 35.867188-2.636719 3.191406-2.1875 7.917969 1.007812 10.558593 3.191407 2.636719 7.917969 2.183594 10.558594-1.007812 9.222656-11.167969 20.003906-20.664062 32.117188-28.316406 3.75 18.5 17.542968 36.261718 38.601562 49.105468 1.851563 1.128907 3.730469 2.222657 5.640625 3.25-.019531.050782-.578125 1.511719-.820312 2.191407 0 .007812-.003907.019531-.007813.027343-3.636718 10.246094-4.691406 21.097657-5.53125 31.863282-1.082031 13.875-2.101562 26.984375-10.070312 43.121094-5.042969 10.214843-.132813 23.003906 10.332031 27.367187 9.503906 3.964844 21.050781-.414063 25.597656-9.625 5.695313-11.535156 8.917969-22.109375 10.867188-31.734375 2.730469-13.484375 2.453125-27.265625 4.804687-40.777344.578125-3.246094 1.382813-6.171875 2.613282-8.921875 1.746093.375 3.511718.71875 5.292968 1.042969 9.390625 1.707031 18.910156 2.640625 28.441406 2.980469 5.175782.1875 10.3125 0 15.484376 0 9.539062 0 19.074218-1.277344 28.445312-2.980469 1.78125-.324219 3.542969-.667969 5.289062-1.039062 1.230469 2.75 2.035157 5.675781 2.617188 8.925781 1.335938 7.480469 1.535156 15.125 2.238281 22.679687.910157 9.777344 2.464844 20.855469 6.589844 33.242188 2.996094 9 6.136719 20.125 14.980469 25.09375 6.558594 3.6875 14.902344 3.445312 21.136718-.910156 7.996094-5.589844 10.992188-16.554688 6.652344-25.34375-3.101562-6.28125-5.503906-12.925782-7.054687-19.757813-2.058594-9.042969-2.578125-18.328125-3.347657-27.542969-.738281-8.832031-1.832031-18.191406-5.195312-27.667968-.007812-.023438-.808594-2.175782-.832031-2.234376 1.914062-1.027343 3.796875-2.113281 5.648437-3.253906 21.054688-12.839844 34.84375-30.601562 38.59375-49.101562 31.695313 19.996094 53.652344 51.996094 60.871094 89.269531l49.050781 253.25c-.054687.03125-.109375.066406-.167969.09375-6.875 3.785156-14.289062 6.5-21.816406 8.664063-10.707031 3.082031-21.757812 5.046874-32.835937 6.214843l-43.929688-189c-.886719-3.816406-4.566406-6.308593-8.445312-5.710937-3.875.59375-6.636719 4.078125-6.335938 7.988281.078125 1.019531 7.589844 101.015625-3.054687 182.570313-.105469.019531-.203125.039062-.308594.0625-15.035156 2.871093-30.230469 4.953124-45.449219 6.3125-4.042969.382812-7.140625 4.132812-6.757812 8.175781.378906 3.988281 4.171875 7.132812 8.171875 6.757812 14.074218-1.300781 28.113281-3.117187 42.023437-5.617187-1.761719 10.589844-3.820312 20.328125-6.140625 29.054687-1.003906 3.785157-3.96875 6.644531-7.742187 7.464844-14.601563 3.1875-47.09375 8.535156-100.636719 8.535156-53.546875 0-86.039062-5.347656-100.640625-8.535156-3.769531-.820313-6.734375-3.679687-7.738281-7.464844-2.320313-8.730469-4.378906-18.46875-6.144532-29.058593 37.722657 6.789062 76.246094 8.816406 114.523438 8.816406 14.125 0 27.980469-.332032 41.230469-.980469 4.585937-.222656 9.003906-2.6875 8.734375-7.949219-.25-4.945312-4.605469-7.269531-9.070313-7.050781-13.132812.648437-26.882812.980469-40.894531.980469-30.980469 0-62.050781-1.464844-92.769531-5.601563-2.113281-.285156-24.070313-2.945312-24.070313-3.902343-10.644531-81.554688-3.132812-181.550782-3.054687-182.570313.300781-3.914063-2.460938-7.394531-6.335938-7.992187-3.875-.597657-7.558593 1.894531-8.449219 5.714843l-43.929687 189c-7.550781-.796875-20.949219-2.652343-34.40625-6.671875-7.023437-2.101562-13.992187-4.734375-20.410156-8.300781l49.050781-253.253906c2.472656-12.78125 6.765625-25.132813 12.753906-36.71875 1.902344-3.679688.460938-8.207031-3.21875-10.105469-3.679687-1.902344-8.203125-.460938-10.105468 3.21875-6.644532 12.855469-11.410157 26.570312-14.15625 40.753906l-56.1875 290.136719c-3.332032 14.601563 5.359374 29.066406 19.84375 32.976563zm126.519531-413.453126c-.011719-.066406-.027344-.136718-.039063-.203124-4.621094-26.945313 20.894532-41.058594 44.035156-44.363282-.039062.066406-.070312.136719-.109374.207032-6.5 11.578124-6.6875 25.089843-3.179688 37.621093.003906.023438.011719.042969.015625.0625 3.800781 12.929688 11.636719 25.648438 20.558594 36.984375-.382813-.09375-.769531-.171875-1.160157-.242187-6.945312-1.246094-14.285156 1.410156-18.832031 6.804687-1.648437 1.957032-3.199219 4-4.632812 6.121094-20.257813-10.945312-33.734375-27.039062-36.65625-42.992188zm61.625 49.375c.175781 2.347657-1.429688 3.894532-2.726563 5.625-8.109375 10.78125-9.507812 24.210938-10.597656 37.304688-1.5 18-4.519531 35.949219-12.585938 52.277344-1.386718 2.808594-5.335937 3.664062-7.6875 1.558594-1.644531-1.46875-2.34375-3.992188-1.34375-6.015626 7.488282-15.195312 10.253907-31.679687 11.574219-48.601562 1.269531-16.296875 3.609375-32.066406 14.5-44.980469 1.757813-2.082031 5.019531-2.351562 7.097657-.601562 1.019531.859375 1.601562 2.042969 1.742187 3.277343.003906.046876.019531.09375.027344.15625zm25.128906 8.367188c-1.472656-.167969-9.304687-1.292969-11.132813-1.625.027344-.085938.050782-.175781.078126-.265625.839843-2.65625 1.125-5.511719.8125-8.28125 3.652343 3.742187 7.21875 7.167969 10.515624 10.199219-.089843-.007813-.183593-.015625-.273437-.027344zm55.476563-1.625c-1.828126.328125-9.664063 1.457031-11.132813 1.625-.089844.011719-.183594.019531-.273437.027344 3.300781-3.035156 6.867187-6.457032 10.515624-10.199219-.226562 2.050781-.132812 4.136719.269532 6.160156.160156.804688.371094 1.605469.621094 2.386719zm-7.480469-23.398438c-4.179688 4.503907-8.371094 8.640626-12.246094 12.269532-.058594.054687-.117187.113281-.175781.167968-.148438.136719-.289063.265626-.4375.402344-5.203125 4.835938-9.796875 8.734375-12.964844 11.332032-3.234375-2.648438-7.949219-6.648438-13.285156-11.621094-3.957032-3.695313-8.253906-7.929688-12.542969-12.546875-18.84375-20.300781-29.121094-38.878907-29.769531-53.796875-.425782-9.757813 4.035156-18.691406 11.175781-25.144532.058594-.054687.125-.105468.183594-.160156 11.777343-2.847656 27.765625-4.472656 44.238281-4.472656 16.46875 0 32.457031 1.625 44.234375 4.472656.0625.050782.125.105469.183594.160156 6.953125 6.261719 11.453125 14.890626 11.207031 24.515626-.386719 15.019531-10.6875 33.839843-29.800781 54.421874zm56.417969 107.40625c.785156 1.585938.570312 3.457032-.378907 4.925782-.417969.644531-1.480469 1.929687-3.246093 2.242187-2.121094.371094-4.453126-.777343-5.40625-2.710937-8.148438-16.496094-11.171876-34.085938-12.585938-52.277344-1.027344-13.195312-2.320312-26.417969-10.597656-37.308594-1.925782-2.53125-4.078125-6.363281-.992188-9.019531 3.410156-2.933594 6.6875-.105469 8.828125 2.683594 11.019531 14.335937 11.78125 31.882812 13.320313 49.144531.703125 7.882812 1.785156 16.351562 4.496094 25.570312 1.695312 5.753907 3.902343 11.371094 6.5625 16.75zm27.039062-142.535156c-2.324219 20.246094-19.941406 36.179688-37.015625 45.402344-.027344-.039062-.058594-.078125-.082031-.117188-2.445313-3.597656-5.167969-7.386718-8.84375-9.8125-4.558594-3.015624-10.386719-4.03125-15.699219-2.753906 15.960937-20.269531 31.671875-49.285156 17.394531-74.671875-.035156-.066406-.066406-.136719-.105468-.203125 24.234374 3.460938 40.207031 14.554688 43.839843 31.125.792969 3.617188.933594 7.359375.511719 11.03125zm72.886719 378.546875c13.828125-1.644531 27.542969-4.289062 40.738281-8.816406 4.488281-1.542969 9.070312-3.375 13.40625-5.480469.027344-.015625.054688-.027344.085938-.042968l4.191406 21.660156c.015625.09375.039062.1875.058594.28125 1.574218 6.738281-2.425782 13.429687-9.113282 15.234375l-28.84375 7.789062c-6.519531 1.761719-13.503906-2.070312-15.53125-8.519531l-5.128906-22.089844c.042969-.003906.09375-.007812.136719-.015625zm-422.816407 7.601563c.019532-.09375.039063-.1875.058594-.28125l4.191406-21.660156c.152344.078124.3125.148437.464844.222656 9.519532 4.59375 19.703125 7.742187 29.988282 10.089844 7.886718 1.800781 15.878906 3.140624 23.914062 4.042968 0 0-5.128906 22.078125-5.132812 22.09375-1.519532 6.546875-9.324219 10.195313-15.527344 8.519532l-28.84375-7.792969c-6.6875-1.804688-10.691406-8.496094-9.113282-15.234375zm0 0"/></svg>