<svg height="511pt" viewBox="1 -24 511.99962 511" width="511pt" xmlns="http://www.w3.org/2000/svg"><path d="m43.4375 376.660156-35.199219 21.027344c-.375 13.101562-.625 26.734375-.738281 40.894531-.082031 9.90625 7.90625 17.980469 17.8125 17.980469h32.613281c9.363281 0 17.128907-7.261719 17.773438-16.609375.71875-10.484375 1.886719-25.25 3.671875-42.265625zm0 0" fill="#75b8db"/><path d="m468.5625 376.660156 35.199219 21.027344c.371093 13.101562.625 26.734375.738281 40.894531.082031 9.90625-7.90625 17.980469-17.8125 17.980469h-32.613281c-9.363281 0-17.128907-7.261719-17.773438-16.609375-.722656-10.484375-1.890625-25.25-3.675781-42.265625zm0 0" fill="#75b8db"/><path d="m146.664062 99.585938v137.371093h-29.203124c-21.578126 36.660157-32.6875 109.082031-38.089844 160.730469h-71.132813c7.597657-269.011719 66.46875-320.53125 66.46875-320.53125zm0 0" fill="#efedee"/><path d="m365.335938 99.585938v137.371093h29.203124c21.574219 36.660157 32.6875 109.082031 38.089844 160.730469h71.132813c-7.597657-269.011719-66.472657-320.53125-66.472657-320.53125zm0 0" fill="#efedee"/><path d="m437.289062 77.15625c-28.035156-28.96875-85.496093-32.492188-85.496093-32.492188h-67.859375l-27.933594 15.207032-27.933594-15.207032h-67.863281s-57.460937 3.523438-85.496094 32.492188c0 0 63.070313 54.203125 42.753907 159.800781l1.148437 160.730469 60.449219 29.4375 49.007812-29.4375h55.867188l53.964844 29.4375 55.492187-29.4375 1.148437-160.730469c-20.316406-105.597656 42.75-159.800781 42.75-159.800781zm0 0" fill="#75b8db"/><path d="m228.066406 397.6875h-109.457031l.207031 28.378906c.121094 16.878906 13.839844 30.492188 30.71875 30.492188h78.53125l27.933594-29.433594zm0 0" fill="#efedee"/><path d="m283.933594 397.6875-27.933594 29.4375 27.933594 29.433594h78.53125c16.878906 0 30.597656-13.613282 30.71875-30.492188l.207031-28.378906zm0 0" fill="#efedee"/><path d="m228.066406 44.664062h55.867188v411.898438h-55.867188zm0 0" fill="#96ccec"/><path d="m204.601562 12.679688s13.3125-4.679688 51.398438-4.679688c38.082031 0 51.398438 4.679688 51.398438 4.679688l30.5 30.5-13.90625 38.441406-67.992188 24.503906-73.371094-23.992188v-34.253906zm0 0" fill="#66a9cc"/><path d="m284.355469 44.664062c-.289063 1.746094-.773438 3.199219-1.269531 4.40625-4.417969 10.707032-17.28125 19.320313-27.085938 24.367188-9.808594-5.046875-22.667969-13.660156-27.085938-24.367188-.5-1.207031-.980468-2.660156-1.269531-4.40625h-67.441406s-14.957031.921876-33.332031 5.667969c-1.160156 5.710938-1.796875 11.839844-1.796875 18.414063 0 15.746094 5.808593 29.957031 16.800781 41.101562 8.023438 8.132813 18.765625 14.511719 31.9375 18.964844 16.195312 5.472656 36.453125 8.25 60.210938 8.25h.003906c9.933594 0 17.84375-.496094 21.972656-.824219 4.128906.328125 12.039062.824219 21.972656.824219 23.757813 0 44.019532-2.777344 60.214844-8.25 13.171875-4.453125 23.914062-10.832031 31.9375-18.964844 10.992188-11.144531 16.800781-25.355468 16.800781-41.101562 0-6.574219-.636719-12.703125-1.796875-18.414063-18.375-4.746093-33.332031-5.667969-33.332031-5.667969zm0 0" fill="#66a9cc"/><path d="m228.066406 102.535156v34.457032c1.964844.042968 3.945313.070312 5.957032.070312h.003906c9.933594 0 17.84375-.496094 21.972656-.824219 4.128906.328125 12.039062.824219 21.972656.824219 2.015625 0 3.996094-.027344 5.960938-.070312v-34.457032l-27.933594 3.589844zm0 0" fill="#75b8db"/><path d="m256 106.125s-83.171875-28.03125-51.398438-93.445312c0 0-49.527343 8.40625-49.527343 56.066406s100.925781 37.378906 100.925781 37.378906zm0 0" fill="#efedee"/><path d="m256 106.125s83.167969-28.03125 51.398438-93.445312c0 0 49.527343 8.40625 49.527343 56.066406s-100.925781 37.378906-100.925781 37.378906zm0 0" fill="#efedee"/><path d="m265.34375 155.65625c0 5.160156-4.183594 9.34375-9.34375 9.34375s-9.34375-4.183594-9.34375-9.34375c0-5.164062 4.183594-9.347656 9.34375-9.347656s9.34375 4.183594 9.34375 9.347656zm0 0"/><path d="m265.34375 219.773438c0 5.160156-4.183594 9.34375-9.34375 9.34375s-9.34375-4.183594-9.34375-9.34375c0-5.160157 4.183594-9.34375 9.34375-9.34375s9.34375 4.183593 9.34375 9.34375zm0 0"/><path d="m265.34375 283.890625c0 5.164063-4.183594 9.347656-9.34375 9.347656s-9.34375-4.183593-9.34375-9.347656c0-5.160156 4.183594-9.34375 9.34375-9.34375s9.34375 4.183594 9.34375 9.34375zm0 0"/><path d="m265.34375 348.011719c0 5.160156-4.183594 9.34375-9.34375 9.34375s-9.34375-4.183594-9.34375-9.34375c0-5.164063 4.183594-9.347657 9.34375-9.347657s9.34375 4.183594 9.34375 9.347657zm0 0"/><path d="m7.484375 456.433594c4.609375 4.660156 10.945313 7.628906 17.828125 7.628906h32.613281c13.25 0 24.34375-10.363281 25.253907-23.59375.652343-9.511719 1.816406-24.515625 3.652343-42 4.125-39.449219 11.296875-88.753906 23.382813-125.761719l.894531 125.035157.207031 28.378906c.148438 20.921875 17.292969 37.941406 38.21875 37.941406h212.929688c20.925781 0 38.066406-17.019531 38.21875-37.941406l.207031-28.378906.890625-125.035157c12.089844 37.007813 19.261719 86.3125 23.386719 125.765625 1.832031 17.472656 2.996093 32.480469 3.648437 42 .914063 13.226563 12.007813 23.589844 25.257813 23.589844h32.613281c13.890625 0 25.429688-11.667969 25.3125-25.539062-.042969-5.34375-.511719-32.90625-.742188-41.050782-2.496093-88.359375-10.761718-162.761718-24.566406-221.140625-.953125-4.027343-4.992187-6.523437-9.027344-5.570312-4.03125.953125-6.523437 4.992187-5.570312 9.023437 13.171875 55.691406 21.21875 126.441406 23.9375 210.402344h-56.667969c-5.808593-52.570312-16.953125-119.613281-37.6875-155.867188-.984375-1.734374-.925781-5.230468-1.226562-7.167968-2.964844-19.199219-3.347657-38.882813-.519531-58.121094 4.316406-29.417969 16.832031-58.5625 36.871093-80.722656.011719-.011719.019531-.023438.03125-.035156 5.921875 8.25 16.886719 26.96875 27.824219 63.5625 1.1875 3.96875 5.367188 6.226562 9.335938 5.039062s6.222656-5.363281 5.039062-9.335938c-7.277344-24.332031-15.496094-44.320312-24.429688-59.414062-3.34375-5.644531-7.125-12.136719-12.183593-16.445312-25.503907-26.078126-71.605469-32.679688-85.898438-34.132813-4.71875-8.222656-11.511719-15.292969-20.269531-20.992187-12.109375-7.882813-24.1875-10.605469-27-11.160157-3.328125-1.035156-18.109375-4.894531-53.25-4.894531-16.152344 0-29.964844.8125-41.054688 2.414062-6.324218.917969-9.929687 1.742188-12.085937 2.460938-2.601563.503906-14.84375 3.195312-27.113281 11.179688-8.757813 5.699218-15.546875 12.769531-20.269532 20.992187-14.304687 1.453125-60.46875 8.066406-85.960937 34.195313-4.058594 3.777343-47.222656 47.96875-63.433594 231.117187-.363281 4.125 2.683594 7.765625 6.8125 8.132813 4.121094.367187 7.765625-2.683594 8.128907-6.8125 8.332031-94.105469 23.851562-149.3125 35.402343-179.050782 7.566407-19.484375 14.457031-30.867187 18.75-36.84375.035157.039063.074219.078125.109375.121094.152344.167969.316406.351562.472656.527344 14.289063 16.082031 48.476563 63.898437 35.203126 141.824218-.039063.242188-.46875 2.621094-.644532 3.566407-20.730468 36.253906-31.871094 103.292969-37.683594 155.863281h-56.664062c.628906-19.371094 1.550781-38.230469 2.746094-56.167969.277344-4.132812-2.851563-7.707031-6.984375-7.984375-4.121094-.273437-7.707031 2.851563-7.980469 6.984375-1.367188 20.5-2.378906 42.1875-3.007812 64.453125-.234376 8.132813-.6992192 35.699219-.742188 41.042969-.0546875 6.820313 2.839844 13.226563 7.484375 17.917969zm489.515625-17.789063c.042969 5.671875-4.636719 10.417969-10.3125 10.417969h-32.613281c-5.402344 0-9.921875-4.230469-10.292969-9.621094-.1875-2.738281-.417969-5.929687-.695312-9.492187h53.824218c.035156 2.894531.066406 5.792969.089844 8.695312zm-.542969-33.457031c.078125 3.234375.148438 6.492188.214844 9.761719h-54.832031c-.28125-3.117188-.585938-6.378907-.914063-9.761719zm-275.890625 43.875h-71.03125c-12.710937 0-23.128906-10.339844-23.21875-23.046875l-.152344-20.828125h94.402344zm55.863282 0h-40.863282v-43.875h40.863282zm0-58.875h-40.863282s0-275.632812.003906-275.632812c2.164063-.011719 4.328126-.113282 6.492188-.113282 6.90625-.199218 11.925781-.601562 13.835938-.773437.03125-.003907.066406-.007813.09375-.007813.84375.074219 10.070312.65625 12.875.75 2.519531.082032 5.039062.128906 7.5625.144532zm109.253906 35.828125c-.09375 12.707031-10.507813 23.042969-23.21875 23.042969h-71.035156v-43.871094h94.402343zm-21.347656-354.535156c.394531-5.917969-.230469-12.019531-1.550782-17.789063-.015625-.070312-.027344-.144531-.042968-.214844 15.851562 2.351563 44.714843 8.550782 63.695312 23.914063-6.15625 6.664063-16.054688 18.925781-24.863281 36.746094-17.785157 35.960937-21.980469 77.457031-15.699219 116.800781.355469 2.238281.738281 4.476562 1.15625 6.703125l-1.089844 152.550781h-94.507812v-275.980468c7.804687-.410157 15.023437-1.1875 21.636718-2.324219 32.015626-5.492188 49.859376-19.351563 51.265626-40.40625zm-49.605469-1.832031c7.28125-13.246094 9.101562-28.5 5.613281-43.167969-.152344-.636719-.300781-1.273438-.472656-1.914063 11.019531 5.011719 25.167968 15.125 28.714844 34.625.941406 5.1875 1.570312 11.160156-.105469 16.265625-1.800781 5.492188-7.046875 12.671875-22.296875 17.828125-10.21875 3.449219-21.070313 4.941406-31.789063 5.707032-2.820312.199218-5.644531.347656-8.464843.441406-.058594 0-.109376 0-.164063.003906 2.066406-1.371094 4.160156-2.855469 6.242187-4.445312 9.074219-6.910157 17.195313-15.296876 22.722657-25.34375zm-109.730469-29.765626c.121094-4.464843.855469-8.925781 2.132812-13.234374.257813-.863282 1.84375-7.398438 2.804688-7.609376 5.582031-1.222656 19.644531-3.539062 46.0625-3.539062 26.453125 0 40.519531 2.324219 46.0625 3.535156 3.164062 7.304688 5.175781 15.226563 5.015625 23.222656-.546875 27.824219-27.6875 46.566407-51.078125 55.855469-4.1875-1.664062-13.285156-5.628906-22.675781-12.015625-.007813-.007812-.019531-.015625-.027344-.019531-15.726563-10.625-28.824219-26.265625-28.296875-46.195313zm-42.363281 26.234376c.882812-18.832032 12.503906-33.824219 29.492187-41.554688-.21875.828125-.421875 1.648438-.609375 2.46875-.011719.035156-.019531.066406-.027343.097656-4.503907 19.335938.957031 38.785156 13.617187 53.84375 6.339844 7.542969 13.886719 13.667969 21.125 18.464844-.054687-.003906-.105469-.003906-.160156-.003906-.296875-.011719-.601563-.023438-.902344-.035156-20.203125-.742188-63.90625-3.902344-62.535156-33.28125zm-48.691407 55.636718c-2.109374-4.859375-25.921874-46.355468-28.382812-44.363281 18.976562-15.363281 47.84375-21.5625 63.695312-23.914063-.015624.070313-.027343.144532-.042968.214844-3.421875 14.921875-1.324219 31.726563 10.808594 42.34375 9.695312 8.484375 22.292968 12.546875 34.710937 15.066406 7.722656 1.566407 16.34375 2.609376 25.832031 3.105469v275.980469h-94.507812l-1.09375-152.550781c.148437-.777344.273437-1.542969.414062-2.3125 6.804688-38.011719 4.023438-77.941407-11.433594-113.570313zm-98.402343 283.433594h55.53125c-.332031 3.382812-.632813 6.644531-.914063 9.761719h-54.832031c.066406-3.269531.132813-6.527344.214844-9.761719zm-.457031 24.761719h53.824218c-.277344 3.5625-.503906 6.753906-.695312 9.488281-.371094 5.398438-4.890625 9.625-10.289063 9.625 0 0-32.570312 0-32.613281 0-5.679688 0-10.359375-4.753906-10.3125-10.421875.023438-2.902344.054688-5.800781.085938-8.691406zm0 0"/></svg>