<svg xmlns="http://www.w3.org/2000/svg" width="226.097" height="95.729" viewBox="0 0 226.097 95.729">
  <g id="rising" transform="translate(-10.317 -0.501)" opacity="0.23">
    <path id="Tracé_70" data-name="Tracé 70" d="M263.515,50.229a7.449,7.449,0,0,0,13.186-1.9l12.2-36.662a7.45,7.45,0,0,0-6.806-9.795L243.481.506A7.448,7.448,0,0,0,237.1,12.2L241.131,18c-20.865,12.039-70.047,36.344-137.059,43.46a3.569,3.569,0,0,0,.372,7.118,3.761,3.761,0,0,0,.381-.019c72.25-7.672,124.259-34.985,143.267-46.373a3.6,3.6,0,0,0,1.1-5.1L242.962,8.13a.31.31,0,0,1,.264-.491L281.84,9.007a.313.313,0,0,1,.284.409s-12.178,36.6-12.2,36.66a.312.312,0,0,1-.55.08l-5.523-7.951a3.568,3.568,0,0,0-4.79-1.011A321.974,321.974,0,0,1,217.74,58.169a3.569,3.569,0,0,0,2.8,6.568A337.111,337.111,0,0,0,259.9,45.022Zm0,0" transform="translate(-52.872 0)" fill="#505050"/>
    <path id="Tracé_71" data-name="Tracé 71" d="M48.9,138.269a3.569,3.569,0,0,0-.47-7.122c-7.746.509-15.545.77-23.179.77a3.568,3.568,0,0,0-3.569,3.569v25.644a3.569,3.569,0,0,0,3.569,3.569A398.412,398.412,0,0,0,164.616,139a3.569,3.569,0,0,0-2.526-6.675A391.609,391.609,0,0,1,28.818,157.543V139.037c6.642-.069,13.381-.325,20.08-.768Zm0,0" transform="translate(-11.363 -68.469)" fill="#505050"/>
  </g>
</svg>
