<svg height="512pt" viewBox="0 -39 512.00006 512" width="512pt" xmlns="http://www.w3.org/2000/svg"><path d="m438.460938 70.40625c-3.507813-16.269531-14.910157-29.714844-30.386719-35.835938l-48.195313-19.058593h-207.753906l-48.199219 19.058593c-15.476562 6.121094-26.878906 19.566407-30.386719 35.835938l-59.472656 275.835938 25.730469 28.0625 32.292969-11.773438 56.191406-212.527344 12.976562 227.933594 114.742188 24.074219 114.746094-24.074219 12.976562-227.933594 56.1875 212.527344 32.296875 11.773438 25.730469-28.0625zm0 0" fill="#ff7a7a"/><path d="m190.597656 7.5h130.808594l10.246094 31.484375-70.527344 42.246094-83.230469-47.160157zm0 0" fill="#d83a5c"/><g fill="#79c08c"><path d="m256 99.898438c-24.527344 0-48.449219-8.570313-67.363281-24.125-18.648438-15.339844-31.613281-36.738282-36.515625-60.261719l38.476562-8.011719c6.40625 30.765625 33.914063 53.097656 65.402344 53.097656 31.492188 0 59-22.332031 65.40625-53.097656l38.472656 8.011719c-4.898437 23.523437-17.863281 44.921875-36.511718 60.261719-18.914063 15.554687-42.839844 24.125-67.367188 24.125zm0 0"/><path d="m72.089844 362.53125-7.152344 27.046875c-2.445312 9.265625-12.003906 14.730469-21.230469 12.136719l-23.675781-6.644532c-8.734375-2.445312-14.050781-11.277343-12.144531-20.148437l6.179687-28.679687zm0 0"/><path d="m491.972656 395.074219-23.675781 6.640625c-9.226563 2.59375-18.785156-2.867188-21.234375-12.132813l-7.152344-27.046875 58.027344-16.289062 6.179688 28.675781c1.90625 8.871094-3.410157 17.707031-12.144532 20.152344zm0 0"/><path d="m370.746094 377.9375-1.601563 28.128906c-.640625 11.230469-9.933593 20.015625-21.183593 20.015625h-183.921876c-11.246093 0-20.542968-8.785156-21.179687-20.015625l-1.601563-28.128906zm0 0"/><path d="m256 183.40625-41.460938 58.296875 41.460938 58.292969 41.460938-58.292969zm0 0"/></g><path d="m175.984375 183.40625-42.484375 58.296875 42.484375 58.292969 38.554687-58.292969zm0 0" fill="#d83a5c"/><path d="m336.015625 183.40625 42.488281 58.296875-42.488281 58.292969-38.554687-58.292969zm0 0" fill="#d83a5c"/><path d="m193.992188 129.839844c-4.144532 0-7.5 3.355468-7.5 7.5v11.222656c0 4.140625 3.355468 7.5 7.5 7.5 4.140624 0 7.5-3.359375 7.5-7.5v-11.222656c0-4.144532-3.359376-7.5-7.5-7.5zm0 0"/><path d="m318.011719 129.839844c-4.144531 0-7.5 3.355468-7.5 7.5v11.222656c0 4.140625 3.355469 7.5 7.5 7.5 4.140625 0 7.5-3.359375 7.5-7.5v-11.222656c0-4.144532-3.359375-7.5-7.5-7.5zm0 0"/><path d="m276.242188 142.132812c-3.121094-2.726562-7.859376-2.40625-10.585938.710938-2.335938 2.671875-5.855469 4.207031-9.65625 4.207031s-7.320312-1.535156-9.65625-4.207031c-2.726562-3.121094-7.464844-3.4375-10.585938-.710938-3.117187 2.722657-3.4375 7.460938-.710937 10.582032 5.1875 5.933594 12.824219 9.335937 20.953125 9.335937s15.765625-3.40625 20.953125-9.335937c2.726563-3.117188 2.40625-7.855469-.710937-10.582032zm0 0"/><path d="m445.792969 68.828125c-4.042969-18.761719-17.113281-34.171875-34.960938-41.230469l-48.195312-19.058594c-.394531-.15625-.8125-.28125-1.230469-.367187 0 0-38.46875-8.011719-38.472656-8.015625-.496094-.1015625-1.019532-.15234375-1.527344-.15625 0 0-130.832031.00390625-130.839844.00390625-.503906 0-1.007812.05078125-1.5.15234375l-38.472656 8.015625c-.417969.085937-.835938.210937-1.230469.367187l-48.195312 19.058594c-17.847657 7.058594-30.917969 22.472656-34.960938 41.230469l-65.65625 304.519531c-2.734375 12.726563 4.933594 25.441406 17.453125 28.945313l23.671875 6.640625c13.078125 3.675781 27.042969-4.296875 30.511719-17.433594l51.285156-193.972656 11.898438 208.964844c.863281 15.191406 13.457031 27.089843 28.667968 27.089843h183.921876c15.214843 0 27.804687-11.898437 28.671874-27.085937l11.898438-208.96875s51.230469 193.769531 51.28125 193.96875c3.457031 13.082031 17.5 21.097656 30.507812 17.441406l23.675782-6.640625c12.519531-3.507813 20.1875-16.222656 17.453125-28.953125zm-134.394531-53.828125c-.0625.152344-.113282.304688-.171876.457031-2.867187 7.28125-7.214843 13.976563-12.671874 19.582031-11.101563 11.40625-26.621094 18.058594-42.554688 18.058594-15.882812 0-31.4375-6.652344-42.558594-18.066406-5.574218-5.714844-9.976562-12.578125-12.835937-20.03125zm-253.710938 372.667969c-1.359375 5.140625-6.851562 8.261719-11.953125 6.824219l-23.683594-6.640626c-4.902343-1.375-7.90625-6.359374-6.832031-11.347656l4.5-20.882812 43.234375 12.136718c-.003906 0-5.257813 19.875-5.265625 19.910157zm305.972656-17.230469h-32.183594c-4.140624 0-7.5 3.359375-7.5 7.5 0 4.144531 3.359376 7.5 7.5 7.5h31.328126l-1.148438 20.203125c-.414062 7.253906-6.429688 12.9375-13.695312 12.9375h-183.921876c-7.265624 0-13.28125-5.683594-13.691406-12.9375l-1.152344-20.203125h152.28125c4.144532 0 7.5-3.359375 7.5-7.5s-3.355468-7.5-7.5-7.5h-153.132812l-5.910156-103.742188s27.460937 37.675782 27.488281 37.71875c2.957031 4.050782 9.421875 4.097657 12.316406-.28125l32.523438-49.175781s35.089843 49.332031 35.125 49.386719c2.859375 4.019531 9.238281 4.195312 12.226562 0l35.125-49.386719s32.457031 49.074219 32.523438 49.175781c2.835937 4.289063 9.292969 4.429688 12.316406.28125l27.488281-37.71875zm-220.878906-128.734375 32.90625-45.152344 29.859375 45.152344-29.859375 45.148437zm80.960938 0 32.257812-45.355469 32.257812 45.355469-32.257812 45.351563zm82.710937 0 29.863281-45.152344 32.90625 45.152344-32.90625 45.148437zm138.761719 111.550781s-54.070313-204.527344-54.242188-205.164062c-2.113281-8-14.265625-6.816406-14.738281 1.488281l-4.027344 70.75s-30.058593-41.242187-30.128906-41.335937c-3.039063-4.171876-9.472656-4.019532-12.316406.277343l-32.523438 49.175781s-35.035156-49.257812-35.125-49.386718c-2.949219-4.144532-9.28125-4.136719-12.226562 0l-35.125 49.386718s-32.46875-49.09375-32.523438-49.175781c-2.839843-4.296875-9.285156-4.4375-12.316406-.277343l-30.125 41.335937s-4.015625-70.53125-4.03125-70.75c-.472656-8.289063-12.613281-9.53125-14.738281-1.492187l-54.242188 205.167968-43.902344-12.324218 57.988282-268.941407c2.988281-13.851562 12.636718-25.230469 25.8125-30.441406l40.242187-15.914063c4.839844 16.546876 13.546875 31.980469 25.171875 44.710938 2.714844 2.976562 7.558594 3.257812 10.597656.492188 3.0625-2.789063 3.28125-7.535157.492188-10.59375-10.152344-11.140626-17.683594-24.507813-21.898438-38.976563l23.867188-4.972656c.257812 0 2.207031 6.011719 2.453125 6.589843 3.023437 7.082032 7.195313 13.648438 12.246094 19.453126 14.046875 16.117187 34.726562 25.761718 56.144531 25.761718 12.558594 0 24.871094-3.363281 35.894531-9.324218 10.167969-5.492188 18.789063-13.613282 25.40625-23.035157 4.15625-5.921875 7.351563-12.554687 9.542969-19.445312l23.863281 4.96875c-.039062.148437-.078125.296875-.121093.441406-2.207032 7.460937-5.328126 14.710937-9.226563 21.4375-6.625 11.429687-15.542969 21.535156-26.105469 29.472656-12.472656 9.375-27.023437 15.640625-42.328125 18.316407-5.5625.96875-11.226562 1.46875-16.925781 1.46875-18.527344 0-36.640625-5.210938-52.382812-15.066407-3.4375-2.152343-8.179688-1.070312-10.335938 2.375-2.171875 3.46875-1.089844 8.167969 2.375 10.335938 18.128906 11.355469 38.996094 17.355469 60.34375 17.355469 26.261719 0 51.878906-9.171876 72.132812-25.832032 7.15625-5.886718 13.539063-12.695312 19.085938-20.109375 7.898438-10.5625 14.105469-22.738281 17.730469-35.429687.039062-.132813.085937-.261719.125-.394532l40.242187 15.914063c13.175782 5.210937 22.828125 16.589844 25.8125 30.441406l57.988282 268.941407zm44.730468 34.597656-23.679687 6.644532c-5.121094 1.441406-10.589844-1.679688-11.949219-6.832032 0 0-5.265625-19.90625-5.265625-19.90625l43.234375-12.136718 4.5 20.875c1.070313 4.992187-1.929687 9.980468-6.839844 11.355468zm0 0"/></svg>